<svg width="90.379" height="90.231" xmlns="http://www.w3.org/2000/svg" viewBox="0 0 90.379 90.231">

 <g>
  <title>background</title>
  <rect fill="none" id="canvas_background" height="402" width="582" y="-1" x="-1"/>
 </g>
 <g>
  <title>Layer 1</title>
  <g id="layer2">
   <path fill="#ff8c00" fill-rule="evenodd" d="m42.52,0a42.52,42.52 0 0 0 -42.52,42.52002a42.52,42.52 0 0 0 42.52,42.518982a42.52,42.52 0 0 0 42.519001,-42.518982a42.52,42.52 0 0 0 -42.519001,-42.52002zm0,7.583984a14.173,14.173 0 0 1 14.173,14.174011a14.173,14.173 0 0 1 -14.173,14.174011a14.173,14.173 0 0 1 -14.174,-14.174011a14.173,14.173 0 0 1 14.174,-14.174011zm-18.315001,31.145996a14.173,14.173 0 0 1 12.608999,7.084045a14.173,14.173 0 0 1 -5.188999,19.362a14.173,14.173 0 0 1 -19.359,-5.190002a14.173,14.173 0 0 1 5.186999,-19.359009a14.173,14.173 0 0 1 6.752001,-1.897034zm35.627001,0.014038a14.173,14.173 0 0 1 7.753998,1.882996a14.173,14.173 0 0 1 5.189003,19.360962a14.173,14.173 0 0 1 -19.361,5.188049a14.173,14.173 0 0 1 -5.187,-19.362a14.173,14.173 0 0 1 11.605,-7.070007z" id="path4150"/>
  </g>
 </g>
</svg>