<?xml version="1.0" encoding="UTF-8" standalone="no"?>
<!-- Created with Inkscape (http://www.inkscape.org/) -->

<svg
   xmlns:dc="http://purl.org/dc/elements/1.1/"
   xmlns:cc="http://creativecommons.org/ns#"
   xmlns:rdf="http://www.w3.org/1999/02/22-rdf-syntax-ns#"
   xmlns:svg="http://www.w3.org/2000/svg"
   xmlns="http://www.w3.org/2000/svg"
   xmlns:sodipodi="http://sodipodi.sourceforge.net/DTD/sodipodi-0.dtd"
   xmlns:inkscape="http://www.inkscape.org/namespaces/inkscape"
   width="95"
   height="95"
   viewBox="0 0 25.135416 25.135418"
   version="1.1"
   id="svg8"
   inkscape:version="0.92.3 (2405546, 2018-03-11)"
   sodipodi:docname="uhf-red.svg">
  <defs
     id="defs2" />
  <sodipodi:namedview
     id="base"
     pagecolor="#ffffff"
     bordercolor="#666666"
     borderopacity="1.0"
     inkscape:pageopacity="0.0"
     inkscape:pageshadow="2"
     inkscape:zoom="3.959798"
     inkscape:cx="102.19351"
     inkscape:cy="34.351693"
     inkscape:document-units="mm"
     inkscape:current-layer="layer1"
     showgrid="false"
     inkscape:window-width="1920"
     inkscape:window-height="1052"
     inkscape:window-x="1920"
     inkscape:window-y="0"
     inkscape:window-maximized="1"
     fit-margin-top="0"
     fit-margin-left="0"
     fit-margin-right="0"
     fit-margin-bottom="0"
     units="px"
     inkscape:measure-start="68.9429,59.3465"
     inkscape:measure-end="0,0" />
  <metadata
     id="metadata5">
    <rdf:RDF>
      <cc:Work
         rdf:about="">
        <dc:format>image/svg+xml</dc:format>
        <dc:type
           rdf:resource="http://purl.org/dc/dcmitype/StillImage" />
        <dc:title></dc:title>
      </cc:Work>
    </rdf:RDF>
  </metadata>
  <g
     inkscape:label="Layer 1"
     inkscape:groupmode="layer"
     id="layer1"
     transform="translate(-54.150759,-44.245429)">
    <path
       style="fill:#ff0000;stroke:none;stroke-width:0.06681738"
       d="m 65.786744,64.208143 v -4.340191 l -3.352967,-4.162321 c -2.91554,-3.619305 -5.927714,-7.346484 -7.50796,-9.290137 -0.488757,-0.601157 -0.679329,-0.893762 -0.62045,-0.952641 0.01853,-0.01853 5.605354,-0.02609 12.415168,-0.0168 l 12.381482,0.01688 -0.831242,1.069078 c -0.457183,0.587993 -2.320285,2.933283 -4.140226,5.211756 -1.819941,2.278473 -4.020869,5.042354 -4.89095,6.141959 l -1.581968,1.999282 v 4.331665 4.331665 h -0.935443 -0.935444 z m -0.172693,-8.635512 c 0.101559,-0.635121 0.169598,-2.790829 0.171098,-5.421059 l 0.0016,-2.794903 -3.424391,0.02477 c -3.567995,0.0258 -3.791886,0.04404 -3.791886,0.308812 0,0.329962 6.63795,8.162786 6.917576,8.162786 0.04464,0 0.101346,-0.126181 0.126007,-0.280401 z m 2.847498,-0.170616 c 0.228169,-0.24806 0.944161,-1.082442 1.591094,-1.854183 0.646931,-0.771741 1.913684,-2.2753 2.815004,-3.341244 1.848348,-2.185942 2.073078,-2.463291 2.073078,-2.558468 0,-0.20962 -0.434784,-0.239534 -3.858703,-0.265491 l -3.424391,-0.02596 0.0033,1.826052 c 0.004,2.19297 0.106312,6.070174 0.169386,6.419746 0.02487,0.137811 0.08371,0.250565 0.130774,0.250565 0.04706,0 0.272248,-0.202958 0.500417,-0.451017 z"
       id="path4827"
       inkscape:connector-curvature="0" />
  </g>
</svg>
