<svg width="20" height="20" xmlns="http://www.w3.org/2000/svg" viewBox="0 0 20 20">
 <metadata id="metadata3343">image/svg+xml</metadata>

 <g>
  <title>background</title>
  <rect fill="none" id="canvas_background" height="402" width="582" y="-1" x="-1"/>
 </g>
 <g>
  <title>Layer 1</title>
  <path fill="#ff8c00" d="m16.399,7.643l0,2.756999c0,2.236 -1.643001,4.629001 -5.399,4.959001l0,2.641l2.6,0c0.219999,0 0.4,0.18 0.4,0.4l0,1.200001c0,0.220999 -0.181,0.4 -0.4,0.4l-7.2,0c-0.22,0 -0.4,-0.18 -0.4,-0.4l0,-1.200001c0,-0.219999 0.18,-0.4 0.399,-0.4l2.601,0l0,-2.641c-3.758,-0.33 -5.4,-2.723001 -5.4,-4.959001l0,-2.756999c0,-0.221 0.18,-0.4 0.4,-0.4l0.6,0c0.22,0 0.4,0.18 0.4,0.4l0,2.756999c0,1.336 1.053,3.6 5,3.6c3.946,0 5,-2.264 5,-3.6l0,-2.756999c0,-0.221 0.18,-0.4 0.399,-0.4l0.601,0c0.219999,-0.001 0.399,0.179 0.399,0.4zm-6.399,4.357c2.346,0 3,-0.965 3,-1.6l0,-3.158l-6,0l0,3.158c0,0.635 0.652,1.6 3,1.6zm3,-10.4c0,-0.637 -0.654,-1.6 -3,-1.6c-2.348,0 -3,0.963 -3,1.6l0,4.242l6,0l0,-4.242z" id="path3337"/>
 </g>
</svg>